<?xml version="1.0" encoding="utf-8"?>
<svg xmlns="http://www.w3.org/2000/svg" xmlns:xlink="http://www.w3.org/1999/xlink" style="margin: auto; background: none; display: block; shape-rendering: auto;" width="364px" height="364px" viewBox="0 0 100 100" preserveAspectRatio="xMidYMid">
<g transform="rotate(0 50 50)">
  <rect x="42.5" y="25.5" rx="7.5" ry="6.5" width="15" height="13" fill="#f9ae5c">
    <animate attributeName="opacity" values="1;0" keyTimes="0;1" dur="1.2048192771084336s" begin="-1.167168674698795s" repeatCount="indefinite"></animate>
  </rect>
</g><g transform="rotate(11.25 50 50)">
  <rect x="42.5" y="25.5" rx="7.5" ry="6.5" width="15" height="13" fill="#f9ae5c">
    <animate attributeName="opacity" values="1;0" keyTimes="0;1" dur="1.2048192771084336s" begin="-1.1295180722891565s" repeatCount="indefinite"></animate>
  </rect>
</g><g transform="rotate(22.5 50 50)">
  <rect x="42.5" y="25.5" rx="7.5" ry="6.5" width="15" height="13" fill="#f9ae5c">
    <animate attributeName="opacity" values="1;0" keyTimes="0;1" dur="1.2048192771084336s" begin="-1.0918674698795179s" repeatCount="indefinite"></animate>
  </rect>
</g><g transform="rotate(33.75 50 50)">
  <rect x="42.5" y="25.5" rx="7.5" ry="6.5" width="15" height="13" fill="#f9ae5c">
    <animate attributeName="opacity" values="1;0" keyTimes="0;1" dur="1.2048192771084336s" begin="-1.0542168674698795s" repeatCount="indefinite"></animate>
  </rect>
</g><g transform="rotate(45 50 50)">
  <rect x="42.5" y="25.5" rx="7.5" ry="6.5" width="15" height="13" fill="#f9ae5c">
    <animate attributeName="opacity" values="1;0" keyTimes="0;1" dur="1.2048192771084336s" begin="-1.016566265060241s" repeatCount="indefinite"></animate>
  </rect>
</g><g transform="rotate(56.25 50 50)">
  <rect x="42.5" y="25.5" rx="7.5" ry="6.5" width="15" height="13" fill="#f9ae5c">
    <animate attributeName="opacity" values="1;0" keyTimes="0;1" dur="1.2048192771084336s" begin="-0.9789156626506024s" repeatCount="indefinite"></animate>
  </rect>
</g><g transform="rotate(67.5 50 50)">
  <rect x="42.5" y="25.5" rx="7.5" ry="6.5" width="15" height="13" fill="#f9ae5c">
    <animate attributeName="opacity" values="1;0" keyTimes="0;1" dur="1.2048192771084336s" begin="-0.9412650602409638s" repeatCount="indefinite"></animate>
  </rect>
</g><g transform="rotate(78.75 50 50)">
  <rect x="42.5" y="25.5" rx="7.5" ry="6.5" width="15" height="13" fill="#f9ae5c">
    <animate attributeName="opacity" values="1;0" keyTimes="0;1" dur="1.2048192771084336s" begin="-0.9036144578313252s" repeatCount="indefinite"></animate>
  </rect>
</g><g transform="rotate(90 50 50)">
  <rect x="42.5" y="25.5" rx="7.5" ry="6.5" width="15" height="13" fill="#f9ae5c">
    <animate attributeName="opacity" values="1;0" keyTimes="0;1" dur="1.2048192771084336s" begin="-0.8659638554216866s" repeatCount="indefinite"></animate>
  </rect>
</g><g transform="rotate(101.25 50 50)">
  <rect x="42.5" y="25.5" rx="7.5" ry="6.5" width="15" height="13" fill="#f9ae5c">
    <animate attributeName="opacity" values="1;0" keyTimes="0;1" dur="1.2048192771084336s" begin="-0.8283132530120482s" repeatCount="indefinite"></animate>
  </rect>
</g><g transform="rotate(112.5 50 50)">
  <rect x="42.5" y="25.5" rx="7.5" ry="6.5" width="15" height="13" fill="#f9ae5c">
    <animate attributeName="opacity" values="1;0" keyTimes="0;1" dur="1.2048192771084336s" begin="-0.7906626506024096s" repeatCount="indefinite"></animate>
  </rect>
</g><g transform="rotate(123.75 50 50)">
  <rect x="42.5" y="25.5" rx="7.5" ry="6.5" width="15" height="13" fill="#f9ae5c">
    <animate attributeName="opacity" values="1;0" keyTimes="0;1" dur="1.2048192771084336s" begin="-0.753012048192771s" repeatCount="indefinite"></animate>
  </rect>
</g><g transform="rotate(135 50 50)">
  <rect x="42.5" y="25.5" rx="7.5" ry="6.5" width="15" height="13" fill="#f9ae5c">
    <animate attributeName="opacity" values="1;0" keyTimes="0;1" dur="1.2048192771084336s" begin="-0.7153614457831324s" repeatCount="indefinite"></animate>
  </rect>
</g><g transform="rotate(146.25 50 50)">
  <rect x="42.5" y="25.5" rx="7.5" ry="6.5" width="15" height="13" fill="#f9ae5c">
    <animate attributeName="opacity" values="1;0" keyTimes="0;1" dur="1.2048192771084336s" begin="-0.677710843373494s" repeatCount="indefinite"></animate>
  </rect>
</g><g transform="rotate(157.5 50 50)">
  <rect x="42.5" y="25.5" rx="7.5" ry="6.5" width="15" height="13" fill="#f9ae5c">
    <animate attributeName="opacity" values="1;0" keyTimes="0;1" dur="1.2048192771084336s" begin="-0.6400602409638554s" repeatCount="indefinite"></animate>
  </rect>
</g><g transform="rotate(168.75 50 50)">
  <rect x="42.5" y="25.5" rx="7.5" ry="6.5" width="15" height="13" fill="#f9ae5c">
    <animate attributeName="opacity" values="1;0" keyTimes="0;1" dur="1.2048192771084336s" begin="-0.6024096385542168s" repeatCount="indefinite"></animate>
  </rect>
</g><g transform="rotate(180 50 50)">
  <rect x="42.5" y="25.5" rx="7.5" ry="6.5" width="15" height="13" fill="#f9ae5c">
    <animate attributeName="opacity" values="1;0" keyTimes="0;1" dur="1.2048192771084336s" begin="-0.5647590361445782s" repeatCount="indefinite"></animate>
  </rect>
</g><g transform="rotate(191.25 50 50)">
  <rect x="42.5" y="25.5" rx="7.5" ry="6.5" width="15" height="13" fill="#f9ae5c">
    <animate attributeName="opacity" values="1;0" keyTimes="0;1" dur="1.2048192771084336s" begin="-0.5271084337349398s" repeatCount="indefinite"></animate>
  </rect>
</g><g transform="rotate(202.5 50 50)">
  <rect x="42.5" y="25.5" rx="7.5" ry="6.5" width="15" height="13" fill="#f9ae5c">
    <animate attributeName="opacity" values="1;0" keyTimes="0;1" dur="1.2048192771084336s" begin="-0.4894578313253012s" repeatCount="indefinite"></animate>
  </rect>
</g><g transform="rotate(213.75 50 50)">
  <rect x="42.5" y="25.5" rx="7.5" ry="6.5" width="15" height="13" fill="#f9ae5c">
    <animate attributeName="opacity" values="1;0" keyTimes="0;1" dur="1.2048192771084336s" begin="-0.4518072289156626s" repeatCount="indefinite"></animate>
  </rect>
</g><g transform="rotate(225 50 50)">
  <rect x="42.5" y="25.5" rx="7.5" ry="6.5" width="15" height="13" fill="#f9ae5c">
    <animate attributeName="opacity" values="1;0" keyTimes="0;1" dur="1.2048192771084336s" begin="-0.4141566265060241s" repeatCount="indefinite"></animate>
  </rect>
</g><g transform="rotate(236.25 50 50)">
  <rect x="42.5" y="25.5" rx="7.5" ry="6.5" width="15" height="13" fill="#f9ae5c">
    <animate attributeName="opacity" values="1;0" keyTimes="0;1" dur="1.2048192771084336s" begin="-0.3765060240963855s" repeatCount="indefinite"></animate>
  </rect>
</g><g transform="rotate(247.5 50 50)">
  <rect x="42.5" y="25.5" rx="7.5" ry="6.5" width="15" height="13" fill="#f9ae5c">
    <animate attributeName="opacity" values="1;0" keyTimes="0;1" dur="1.2048192771084336s" begin="-0.338855421686747s" repeatCount="indefinite"></animate>
  </rect>
</g><g transform="rotate(258.75 50 50)">
  <rect x="42.5" y="25.5" rx="7.5" ry="6.5" width="15" height="13" fill="#f9ae5c">
    <animate attributeName="opacity" values="1;0" keyTimes="0;1" dur="1.2048192771084336s" begin="-0.3012048192771084s" repeatCount="indefinite"></animate>
  </rect>
</g><g transform="rotate(270 50 50)">
  <rect x="42.5" y="25.5" rx="7.5" ry="6.5" width="15" height="13" fill="#f9ae5c">
    <animate attributeName="opacity" values="1;0" keyTimes="0;1" dur="1.2048192771084336s" begin="-0.2635542168674699s" repeatCount="indefinite"></animate>
  </rect>
</g><g transform="rotate(281.25 50 50)">
  <rect x="42.5" y="25.5" rx="7.5" ry="6.5" width="15" height="13" fill="#f9ae5c">
    <animate attributeName="opacity" values="1;0" keyTimes="0;1" dur="1.2048192771084336s" begin="-0.2259036144578313s" repeatCount="indefinite"></animate>
  </rect>
</g><g transform="rotate(292.5 50 50)">
  <rect x="42.5" y="25.5" rx="7.5" ry="6.5" width="15" height="13" fill="#f9ae5c">
    <animate attributeName="opacity" values="1;0" keyTimes="0;1" dur="1.2048192771084336s" begin="-0.18825301204819275s" repeatCount="indefinite"></animate>
  </rect>
</g><g transform="rotate(303.75 50 50)">
  <rect x="42.5" y="25.5" rx="7.5" ry="6.5" width="15" height="13" fill="#f9ae5c">
    <animate attributeName="opacity" values="1;0" keyTimes="0;1" dur="1.2048192771084336s" begin="-0.1506024096385542s" repeatCount="indefinite"></animate>
  </rect>
</g><g transform="rotate(315 50 50)">
  <rect x="42.5" y="25.5" rx="7.5" ry="6.5" width="15" height="13" fill="#f9ae5c">
    <animate attributeName="opacity" values="1;0" keyTimes="0;1" dur="1.2048192771084336s" begin="-0.11295180722891565s" repeatCount="indefinite"></animate>
  </rect>
</g><g transform="rotate(326.25 50 50)">
  <rect x="42.5" y="25.5" rx="7.5" ry="6.5" width="15" height="13" fill="#f9ae5c">
    <animate attributeName="opacity" values="1;0" keyTimes="0;1" dur="1.2048192771084336s" begin="-0.0753012048192771s" repeatCount="indefinite"></animate>
  </rect>
</g><g transform="rotate(337.5 50 50)">
  <rect x="42.5" y="25.5" rx="7.5" ry="6.5" width="15" height="13" fill="#f9ae5c">
    <animate attributeName="opacity" values="1;0" keyTimes="0;1" dur="1.2048192771084336s" begin="-0.03765060240963855s" repeatCount="indefinite"></animate>
  </rect>
</g><g transform="rotate(348.75 50 50)">
  <rect x="42.5" y="25.5" rx="7.5" ry="6.5" width="15" height="13" fill="#f9ae5c">
    <animate attributeName="opacity" values="1;0" keyTimes="0;1" dur="1.2048192771084336s" begin="0s" repeatCount="indefinite"></animate>
  </rect>
</g>
<!-- [ldio] generated by https://loading.io/ --></svg>